<?xml version="1.0" encoding="iso-8859-1"?>
<!-- Generator: Adobe Illustrator 18.0.0, SVG Export Plug-In . SVG Version: 6.00 Build 0)  -->
<!DOCTYPE svg PUBLIC "-//W3C//DTD SVG 1.1//EN" "http://www.w3.org/Graphics/SVG/1.1/DTD/svg11.dtd">
<svg version="1.1" id="Capa_1" xmlns="http://www.w3.org/2000/svg" xmlns:xlink="http://www.w3.org/1999/xlink" x="0px" y="0px"
	 viewBox="0 0 464.449 464.449" style="enable-background:new 0 0 464.449 464.449;" xml:space="preserve">
<g>
	<path d="M281.017,208.575c24.693-9.699,45.771-26.386,60.958-48.259c15.548-22.395,23.767-48.693,23.767-76.051V71.706h8.948
		c4.142,0,7.5-3.358,7.5-7.5V7.5c0-4.142-3.358-7.5-7.5-7.5H89.759c-4.142,0-7.5,3.358-7.5,7.5v56.706c0,4.142,3.358,7.5,7.5,7.5
		h8.955v12.558c0,27.36,8.217,53.658,23.763,76.051c15.185,21.874,36.265,38.561,60.961,48.259
		c9.772,3.838,16.086,12.948,16.086,23.21v0.882c0,10.255-6.314,19.361-16.087,23.2c-24.696,9.703-45.776,26.394-60.961,48.268
		c-15.545,22.394-23.763,48.693-23.763,76.052v12.556h-8.955c-4.142,0-7.5,3.358-7.5,7.5v56.706c0,4.142,3.358,7.5,7.5,7.5H374.69
		c4.142,0,7.5-3.358,7.5-7.5v-56.706c0-4.142-3.358-7.5-7.5-7.5h-8.948v-12.556c0-27.358-8.219-53.656-23.767-76.052
		c-15.185-21.873-36.263-38.563-60.958-48.268c-9.772-3.838-16.086-12.945-16.086-23.199v-0.882
		C264.931,221.523,271.245,212.413,281.017,208.575z M97.259,43.353h204.766c4.142,0,7.5-3.358,7.5-7.5s-3.358-7.5-7.5-7.5H97.259
		V15H367.19v13.35h-14.432c-4.142,0-7.5,3.358-7.5,7.5s3.358,7.5,7.5,7.5h14.432v13.356H97.259V43.353z M367.19,449.449H97.259
		v-41.706H367.19V449.449z M275.532,269.827c21.92,8.615,40.634,23.436,54.121,42.861c13.796,19.872,21.089,43.213,21.089,67.498
		v12.556H113.714v-12.556c0-24.287,7.291-47.628,21.085-67.499c13.485-19.426,32.201-34.247,54.123-42.86
		c15.553-6.109,25.603-20.696,25.603-37.161v-0.882c0-16.472-10.05-31.063-25.604-37.172c-21.922-8.609-40.637-23.427-54.123-42.852
		c-13.794-19.869-21.085-43.209-21.085-67.497V71.707h237.028v12.557c0,24.286-7.292,47.626-21.089,67.497
		c-13.486,19.425-32.201,34.243-54.119,42.852c-15.553,6.109-25.603,20.7-25.603,37.172v0.882
		C249.931,249.132,259.981,263.719,275.532,269.827z"/>
	<path d="M238.983,299.471c-1.251-2.593-3.876-4.241-6.755-4.241c-2.879,0-5.504,1.648-6.755,4.241
		c-6.181,12.813-17.019,22.787-30.519,28.088c-18.87,7.417-34.983,20.177-46.597,36.902c-1.592,2.293-1.779,5.281-0.485,7.754
		c1.294,2.474,3.854,4.024,6.646,4.024h155.42c2.792,0,5.352-1.55,6.646-4.024c1.293-2.473,1.106-5.461-0.485-7.754
		c-11.614-16.725-27.727-29.486-46.6-36.903C256.002,322.259,245.164,312.284,238.983,299.471z M293.985,361.24H170.471
		c8.483-8.559,18.645-15.269,29.968-19.719c12.865-5.052,23.823-13.49,31.789-24.313c7.966,10.823,18.924,19.261,31.787,24.312
		C275.34,345.971,285.502,352.681,293.985,361.24z"/>
	<path d="M316.099,142.348c1.916-2.76,1.797-6.526-0.489-9.19c-1.457-1.698-3.651-2.587-5.889-2.587H154.735
		c-2.238,0-4.432,0.889-5.889,2.587c-2.286,2.665-2.405,6.431-0.489,9.19c11.614,16.725,27.727,29.486,46.6,36.903
		c10.543,4.14,19.455,11.137,25.797,20.108c2.625,3.713,3.974,8.181,3.974,12.729v24.431c0,4.107,3.164,7.688,7.269,7.811
		c4.247,0.128,7.731-3.278,7.731-7.497v-24.745c0-4.548,1.349-9.015,3.974-12.729c6.343-8.971,15.255-15.968,25.799-20.109
		C288.372,171.834,304.485,159.073,316.099,142.348z M232.228,189.601c-7.966-10.823-18.924-19.261-31.787-24.312
		c-11.325-4.451-21.487-11.161-29.971-19.72h123.514c-8.483,8.559-18.645,15.269-29.968,19.719
		C251.152,170.341,240.194,178.778,232.228,189.601z"/>
	<path d="M225.988,263.234c1.84,2.691,5.277,3.969,8.418,3.009c3.131-0.958,5.315-3.904,5.323-7.179
		c0.015-6.263-7.587-9.731-12.348-5.715C224.501,255.777,223.924,260.099,225.988,263.234
		C226.268,263.644,225.718,262.823,225.988,263.234z"/>
	<path d="M334.688,32.984c-2.013-4.768-8.543-6.225-12.23-2.43c-2.897,2.814-2.897,7.786,0,10.6
		c2.401,2.474,6.372,2.865,9.268,1.059C334.821,40.281,336.034,36.354,334.688,32.984C334.498,32.534,334.867,33.434,334.688,32.984
		z"/>
</g>
<g>
</g>
<g>
</g>
<g>
</g>
<g>
</g>
<g>
</g>
<g>
</g>
<g>
</g>
<g>
</g>
<g>
</g>
<g>
</g>
<g>
</g>
<g>
</g>
<g>
</g>
<g>
</g>
<g>
</g>
</svg>
