<?xml version="1.0" encoding="iso-8859-1"?>
<!-- Generator: Adobe Illustrator 18.0.0, SVG Export Plug-In . SVG Version: 6.00 Build 0)  -->
<!DOCTYPE svg PUBLIC "-//W3C//DTD SVG 1.1//EN" "http://www.w3.org/Graphics/SVG/1.1/DTD/svg11.dtd">
<svg version="1.1" id="Capa_1" xmlns="http://www.w3.org/2000/svg" xmlns:xlink="http://www.w3.org/1999/xlink" x="0px" y="0px"
	 viewBox="0 0 462.661 462.661" style="enable-background:new 0 0 462.661 462.661;" xml:space="preserve">
<path d="M459.023,152.422l-226.33-64.086c-0.891-0.252-1.834-0.252-2.725,0L3.638,152.422c-2.07,0.586-3.533,2.431-3.632,4.581
	c-0.099,2.15,1.188,4.122,3.196,4.896l109.298,42.148l-3.824,30.323c-0.928,7.297,2.695,14.428,9.236,18.197
	c20.802,12.903,86.46,44.525,106.172,49.245c2.807,0.786,5.692,1.18,8.579,1.18c2.886,0,5.772-0.394,8.581-1.18
	c19.703-4.714,85.366-36.337,106.177-49.244c6.544-3.769,10.167-10.902,9.238-18.196l-3.954-31.304l24.313-9.376v95.059
	c-7.895,2.195-13.713,9.429-13.713,18.014c0,6.083,2.931,11.482,7.441,14.902c-1.138,5.026-2.376,10.049-3.724,15.054
	c-0.279,0.56-0.451,1.176-0.502,1.831c-2.608,9.497-5.578,18.929-8.899,28.196c-0.516,1.44-0.344,3.038,0.466,4.335
	s2.171,2.153,3.692,2.321c6.715,0.742,13.477,1.112,20.239,1.112c6.762,0,13.524-0.371,20.239-1.112
	c1.521-0.168,2.881-1.023,3.692-2.321s0.982-2.895,0.466-4.335c-5.283-14.743-9.687-29.898-13.125-45.081
	c4.51-3.42,7.441-8.818,7.441-14.902c0-8.584-5.818-15.819-13.712-18.014v-98.915l72.444-27.937
	c2.008-0.774,3.295-2.746,3.196-4.896C462.556,154.853,461.093,153.008,459.023,152.422z M369.154,364.041
	c2.259-6.641,4.34-13.354,6.245-20.103h13.231c1.905,6.75,3.986,13.462,6.245,20.103
	C386.319,364.673,377.709,364.673,369.154,364.041z M385.95,333.938h-7.87c0.725-2.849,1.417-5.702,2.075-8.556
	c0.612,0.061,1.232,0.094,1.86,0.094c0.628,0,1.247-0.034,1.859-0.094C384.533,328.236,385.225,331.089,385.95,333.938z
	 M390.728,306.763c0,4.804-3.908,8.713-8.712,8.713s-8.713-3.909-8.713-8.713s3.909-8.712,8.713-8.712
	S390.728,301.959,390.728,306.763z M343.577,210.622l-43.123,16.63c-2.577,0.994-3.86,3.888-2.866,6.464
	c0.766,1.985,2.659,3.203,4.666,3.203c0.598,0,1.207-0.108,1.798-0.336l40.816-15.74l0.691,5.47l-20.859,8.044
	c-2.577,0.994-3.86,3.888-2.866,6.464c0.765,1.985,2.659,3.203,4.666,3.203c0.598,0,1.207-0.108,1.798-0.336l18.483-7.127
	c0.023,2.967-1.622,5.789-4.397,7.368c-0.056,0.032-0.111,0.065-0.166,0.099c-21.698,13.48-86.097,43.995-103.383,48.079
	c-0.072,0.017-0.144,0.036-0.215,0.056c-3.899,1.106-8.018,1.107-11.914,0c-0.071-0.02-0.143-0.039-0.215-0.056
	c-17.295-4.089-81.689-34.603-103.378-48.08c-0.054-0.034-0.109-0.066-0.165-0.098c-2.442-1.39-4.001-3.744-4.329-6.313
	l15.745,6.072c0.591,0.228,1.2,0.336,1.798,0.336c2.007,0,3.901-1.218,4.666-3.203c0.994-2.576-0.29-5.47-2.866-6.464l-18.314-7.063
	l0.69-5.47l38.273,14.76c0.591,0.228,1.2,0.336,1.798,0.336c2.007,0,3.901-1.217,4.666-3.203c0.994-2.576-0.29-5.47-2.866-6.464
	l-40.581-15.65l0.485-3.85l107.421,41.425c0.579,0.223,1.189,0.335,1.799,0.335s1.22-0.112,1.799-0.335l109.962-42.405
	L343.577,210.622z M378.218,182.509L232.345,152.34c-2.7-0.559-5.35,1.18-5.909,3.884c-0.559,2.704,1.18,5.35,3.884,5.909
	l130.662,27.023l-129.651,49.997L20.783,157.96l210.547-59.617l210.547,59.617L378.218,182.509z"/>
<g>
</g>
<g>
</g>
<g>
</g>
<g>
</g>
<g>
</g>
<g>
</g>
<g>
</g>
<g>
</g>
<g>
</g>
<g>
</g>
<g>
</g>
<g>
</g>
<g>
</g>
<g>
</g>
<g>
</g>
</svg>
