<?xml version="1.0" encoding="utf-8"?>
<!-- Generator: Adobe Illustrator 21.1.0, SVG Export Plug-In . SVG Version: 6.00 Build 0)  -->
<svg version="1.1" id="Слой_1" xmlns="http://www.w3.org/2000/svg" xmlns:xlink="http://www.w3.org/1999/xlink" x="0px" y="0px"
	 viewBox="0 0 38.6 35.7" style="enable-background:new 0 0 38.6 35.7;" xml:space="preserve">
<style type="text/css">
	.st0{fill:#C44646;}
</style>
<path class="st0" d="M37.3,34L37.3,34c-1.7,1.9-4.7,2.1-6.6,0.4L1.6,8.2c-1.9-1.7-2.1-4.7-0.4-6.6l0,0c1.7-1.9,4.7-2.1,6.6-0.4
	l29.1,26.2C38.8,29.2,39,32.1,37.3,34z"/>
<path class="st0" d="M1.4,34.1L1.4,34.1c-1.7-1.9-1.6-4.9,0.3-6.6l29-26.3c1.9-1.7,4.9-1.6,6.6,0.3l0,0C39.1,3.5,39,6.4,37,8.2
	l-29,26.3C6.1,36.2,3.2,36,1.4,34.1z"/>
</svg>
