<?xml version="1.0" encoding="utf-8"?>
<!-- Generator: Adobe Illustrator 21.1.0, SVG Export Plug-In . SVG Version: 6.00 Build 0)  -->
<svg version="1.1" id="Слой_1" xmlns="http://www.w3.org/2000/svg" xmlns:xlink="http://www.w3.org/1999/xlink" x="0px" y="0px"
	 viewBox="0 0 41 44.3" style="enable-background:new 0 0 41 44.3;" xml:space="preserve">
<style type="text/css">
	.st0{fill:#5B9B27;}
</style>
<path class="st0" d="M19.6,43.6L19.6,43.6c-2.2,1.3-5.1,0.5-6.4-1.7L0.6,20.1c-1.3-2.2-0.5-5.1,1.7-6.4l0,0c2.2-1.3,5.1-0.5,6.4,1.7
	l12.6,21.8C22.6,39.5,21.8,42.3,19.6,43.6z"/>
<path class="st0" d="M15.7,43.4L15.7,43.4c-2.3-1.2-3.2-4-1.9-6.3L32.2,2.5c1.2-2.3,4-3.2,6.3-1.9l0,0c2.3,1.2,3.2,4,1.9,6.3
	L22.1,41.5C20.9,43.7,18,44.6,15.7,43.4z"/>
</svg>
