<?xml version="1.0" encoding="utf-8"?>
<!-- Generator: Adobe Illustrator 21.1.0, SVG Export Plug-In . SVG Version: 6.00 Build 0)  -->
<svg version="1.1" id="Layer_1" xmlns="http://www.w3.org/2000/svg" xmlns:xlink="http://www.w3.org/1999/xlink" x="0px" y="0px"
	 viewBox="0 0 512 512" style="enable-background:new 0 0 512 512;" xml:space="preserve">
<style type="text/css">
	.st0{fill:#D73F6E;}
	.st1{fill:#FFFFFF;}
</style>
<g>
	<g>
		<g>
			<g>
				<g>
					<path class="st0" d="M256,0C153.8,0,70.6,83.2,70.6,185.4c0,126.9,165.9,313.2,173,321c6.6,7.4,18.2,7.4,24.8,0
						c7.1-7.9,173-194.1,173-321C441.4,83.2,358.2,0,256,0z M256,278.7c-51.4,0-93.3-41.9-93.3-93.3s41.9-93.3,93.3-93.3
						s93.3,41.9,93.3,93.3S307.4,278.7,256,278.7z"/>
				</g>
			</g>
		</g>
	</g>
	<g>
		<circle class="st1" cx="256" cy="183.9" r="169.1"/>
		<path class="st0" d="M256,353.5c-93.5,0-169.6-76.1-169.6-169.6S162.5,14.3,256,14.3c93.5,0,169.6,76.1,169.6,169.6
			S349.5,353.5,256,353.5z M256,15.3C163,15.3,87.4,91,87.4,183.9S163,352.5,256,352.5c93,0,168.6-75.6,168.6-168.6
			S349,15.3,256,15.3z"/>
	</g>
	<g>
		<path class="st0" d="M256,366c-100.4,0-182.1-81.7-182.1-182.1C73.9,83.5,155.6,1.8,256,1.8s182.1,81.7,182.1,182.1
			C438.1,284.3,356.4,366,256,366z M256,27.8c-86.1,0-156.1,70-156.1,156.1C99.9,270,169.9,340,256,340c86.1,0,156.1-70,156.1-156.1
			C412.1,97.9,342.1,27.8,256,27.8z"/>
		<path class="st0" d="M256,366.5c-100.7,0-182.6-81.9-182.6-182.6S155.3,1.3,256,1.3c100.7,0,182.6,81.9,182.6,182.6
			S356.7,366.5,256,366.5z M256,2.3C155.9,2.3,74.4,83.8,74.4,183.9c0,100.1,81.5,181.6,181.6,181.6S437.6,284,437.6,183.9
			C437.6,83.8,356.1,2.3,256,2.3z M256,340.5c-86.3,0-156.6-70.2-156.6-156.6c0-86.3,70.2-156.6,156.6-156.6s156.6,70.2,156.6,156.6
			C412.6,270.3,342.3,340.5,256,340.5z M256,28.3c-85.8,0-155.6,69.8-155.6,155.6S170.2,339.5,256,339.5
			c85.8,0,155.6-69.8,155.6-155.6S341.8,28.3,256,28.3z"/>
	</g>
	<g>
		<g>
			<polygon class="st0" points="145,70.1 193,200.2 217.8,200.2 256,94.5 294.6,200.2 319,200.2 367,70.1 345,49.8 306.8,157.9 
				268.2,51.4 243.8,51.4 205.6,157.5 166.6,49.8 			"/>
		</g>
		<g>
			<path class="st0" d="M320.7,202.7h-27.9L256,101.8l-36.5,100.9h-28.3L142.1,69.4l25.5-24.1l38,104.8L242,48.9h27.9l36.8,101.6
				l37.1-105.1l26,24L320.7,202.7z M296.4,197.7h20.9L364,70.8l-17.9-16.6l-39.3,111.1L266.4,53.9h-20.9l-40,110.9L165.5,54.2
				L148,70.8l46.8,126.9H216l40-110.5L296.4,197.7z"/>
		</g>
	</g>
	<g>
		<g>
			<polygon class="st0" points="200.7,221.3 311.7,221.3 268.2,338.4 244.2,338.4 			"/>
		</g>
		<g>
			<path class="st0" d="M269.9,340.9h-27.5l-45.3-122.1h118.2L269.9,340.9z M246,335.9h20.5l41.6-112.1H204.3L246,335.9z"/>
		</g>
	</g>
</g>
</svg>
